<svg width="22" height="22" viewBox="0 0 22 22" fill="none" xmlns="http://www.w3.org/2000/svg">
<g id="svg">
<path id="Shape" d="M1.7842 4.04895C2.8226 3.21487 4.0942 2.97765 5.4692 3.09817C7.3975 3.26365 9.0508 4.0193 10.6194 4.94139L10.9714 5.15182C11.0187 4.994 11.0594 4.85913 11.0979 4.7233C11.4411 3.52765 12.0527 2.46782 13.2033 1.69113C14.7763 0.631303 16.7178 0.767129 18.1863 1.76478C16.2129 2.00965 14.8841 3.04365 13.6961 4.38278C14.2901 4.30626 14.7961 4.22974 15.3021 4.17713C16.3284 4.07191 17.3514 4.08339 18.3546 4.31774C20.2246 4.75582 21.2982 5.852 21.7096 7.44556C21.8636 8.03382 21.9054 8.64313 21.9989 9.24382L21.8999 9.27922C21.7822 9.17113 21.6689 9.06304 21.5479 8.95687C20.2972 7.83774 18.8386 7.02278 17.0357 6.74348C15.9907 6.58087 14.9545 6.61626 13.9579 6.97878C13.8072 7.03235 13.6675 7.10982 13.5267 7.17582C16.0633 7.42452 17.941 8.58956 19.3809 10.297C20.8802 12.0732 20.9462 13.9815 19.7846 15.9232C19.1939 16.9113 18.0796 18.0792 17.105 18.766C17.0764 18.4312 17.061 18.1117 17.0192 17.7951C16.7475 15.6965 16.1535 13.6792 14.9215 11.836C14.3429 10.9694 13.618 10.2118 12.5675 9.73548C12.4531 9.68382 12.3343 9.64269 12.1715 9.57861C12.155 9.73643 12.1352 9.86748 12.1297 9.99948C12.0241 12.4702 11.7777 14.9284 11.0924 17.3389C10.7404 18.5823 10.2982 19.8 9.5414 20.9143C9.5161 20.9526 9.2598 21.2367 9.2598 21.2367C8.8891 21.6537 8.096 21.9895 7.491 21.9876L3.4595 21.9742C2.2451 21.9694 1.969 21.362 2.8292 20.6226C2.8292 20.6226 3.9072 19.7235 5.0314 18.6684C7.4492 16.3986 8.8616 13.707 9.3764 10.6604C9.4314 10.3314 9.4842 10.0004 9.5491 9.60348C7.4811 10.2377 5.8751 11.3233 4.5683 12.7562C3.2538 14.1986 2.4849 15.8247 2.4266 17.6851C2.3903 17.6775 2.3551 17.6794 2.3386 17.666C1.2881 16.719 0.4653 15.663 0.2178 14.3373C-0.0352 12.9695 0.3652 11.7231 1.276 10.6107C2.706 8.86217 4.6453 7.75069 7.0873 7.31548C7.3106 7.2753 7.5405 7.25809 7.7693 7.24469C7.9926 7.23322 8.2181 7.24278 8.5107 7.24278C8.1202 6.8793 7.6857 6.68609 7.2127 6.56365C6.0555 6.26713 4.906 6.37713 3.7675 6.64017C2.4079 6.95582 1.1605 7.46948 0 8.28348C0.0726 6.65739 0.3795 5.17287 1.7842 4.04609V4.04895Z" fill="#A0B0B9"/>
</g>
</svg>
